# xmcd
#
# Track frame offsets: 
#        150
#        22827
#        43577
#
# Disc length: 728 seconds
#
# Revision: 0
# Processed by: cddbd v1.5.2PL0 Copyright (c) Steve Scherf et al.
# Submitted via: ExactAudioCopy v0.95b4
#
DISCID=1702d603
DTITLE=Tom Petty and the Heartbreakers - Room at  the Top (single)
DYEAR=1999
DGENRE=Rock
TTITLE0=Room at the Top (LP Version)
TTITLE1=Sweet William (Non LP Track)
TTITLE2=Angel Dream (From "She's the One")
EXTD=
EXTT0=
EXTT1=
EXTT2=
PLAYORDER=
